# xmcd
#
# Track frame offsets:
#	150
#	10232
#	18733
#	27075
#	39030
#	48065
#	57575
#	66526
#	78218
#	88027
#	99029
#	107363
#	118892
#	125373
#	132263
#	144647
#	152048
#
# Disc length: 2174 seconds
#
# Revision: 0
# Processed by: cddbd v1.5.2PL0 Copyright (c) Steve Scherf et al.
# Submitted via: EasyCDDAExtractor 11.9.9.666
#
DISCID=d5087c11
DTITLE=Tom Brumley and The Buckaroos - Steelin' The Show
DYEAR=2018
DGENRE=Omnivore
TTITLE0=Tom Cattin'
TTITLE1=Steel Guitar Rag
TTITLE2=Bud's Place
TTITLE3=Neosho Waltz
TTITLE4=Steel Guitar Polka
TTITLE5=Seven Come Eleven
TTITLE6=Free And Easy
TTITLE7=Tom's Waltz
TTITLE8=Applejack
TTITLE9=Waltz Of The Roses
TTITLE10=Pedal Patter
TTITLE11=Tracie's Waltz
TTITLE12=Runnin' Short
TTITLE13=Highland Fling
TTITLE14=Moonlight On The Desert
TTITLE15=March Of The McGregor
TTITLE16=Together Again with Buck Owens
EXTD=
EXTT0=
EXTT1=
EXTT2=
EXTT3=
EXTT4=
EXTT5=
EXTT6=
EXTT7=
EXTT8=
EXTT9=
EXTT10=
EXTT11=
EXTT12=
EXTT13=
EXTT14=
EXTT15=
EXTT16=
PLAYORDER=
